<svg xmlns="http://www.w3.org/2000/svg" width="480" height="270" viewBox="0 0 480 270" role="img" aria-label="常见天气系统——锋面、低压（气旋）与高压（反气旋）">
  <title>常见天气系统——锋面、低压（气旋）与高压（反气旋）</title>
  <defs>
    <linearGradient id="pg" x1="0" y1="0" x2="0" y2="1">
      <stop offset="0" stop-color="#FFFFFF"/><stop offset="1" stop-color="#F7F5F1"/>
    </linearGradient>
    <linearGradient id="bar" x1="0" y1="0" x2="0" y2="1">
      <stop offset="0" stop-color="#3E6B4F"/><stop offset="1" stop-color="#3E6B4F" stop-opacity=".72"/>
    </linearGradient>
    <clipPath id="clip"><rect x="0" y="0" width="480" height="270"/></clipPath>
  </defs>
  <g clip-path="url(#clip)">
    <rect width="480" height="270" fill="url(#pg)"/>
    <g stroke="#3E6B4F" stroke-opacity=".055" stroke-width="1"><line x1="46" y1="40" x2="452" y2="40"/><line x1="46" y1="66" x2="452" y2="66"/><line x1="46" y1="92" x2="452" y2="92"/><line x1="46" y1="118" x2="452" y2="118"/><line x1="46" y1="144" x2="452" y2="144"/><line x1="46" y1="170" x2="452" y2="170"/><line x1="46" y1="196" x2="452" y2="196"/><line x1="46" y1="222" x2="452" y2="222"/><line x1="46" y1="248" x2="452" y2="248"/></g>
    <text x="392" y="238" font-family="KaiTi,楷体,STKaiti,serif" font-size="150" fill="#3E6B4F" fill-opacity=".05" text-anchor="middle">地</text>
    <rect x="0" y="0" width="14" height="270" fill="url(#bar)"/>
    <rect x="14" y="0" width="3" height="270" fill="#3E6B4F" opacity=".18"/>
    <rect x="46" y="32" width="52" height="20" rx="3" fill="#E5F0E8"/>
    <text x="72" y="46.5" font-family="'Microsoft YaHei',微软雅黑,sans-serif" font-size="12" fill="#3E6B4F" text-anchor="middle" letter-spacing="1">地理</text>
    <text x="110" y="46.5" font-family="'Microsoft YaHei',微软雅黑,sans-serif" font-size="11.5" fill="#9A948B" letter-spacing="1.2">高中 · 青教赛范式教案</text>
    <text x="62" y="0" font-family="'Microsoft YaHei',微软雅黑,sans-serif" font-size="23" font-weight="700" fill="#1E2A33"><tspan x="62" y="98">常见天气系统——锋面、低压（气旋）</tspan><tspan x="62" y="130">与高压（反气旋）</tspan></text>
    <rect x="62" y="143" width="46" height="3" fill="#3E6B4F"/>
    <text x="62" y="171" font-family="KaiTi,楷体,STKaiti,serif" font-size="14.5" fill="#6E6862">高考地理专题突破（第1课时）</text>
    <line x1="46" y1="228" x2="434" y2="228" stroke="#3E6B4F" stroke-opacity=".16" stroke-width="1"/>
    <text x="46" y="249" font-family="'Microsoft YaHei',微软雅黑,sans-serif" font-size="12" fill="#8A857E">地理 · 高中 · 教案</text>
    <text x="434" y="249" font-family="'Microsoft YaHei',微软雅黑,sans-serif" font-size="11" fill="#B3ADA5" text-anchor="end" letter-spacing=".5">lesson_geography_weather_system</text>
  </g>
</svg>
